<mxfile host="app.diagrams.net" modified="2022-11-09T02:04:46.739Z" agent="5.0 (Windows NT 10.0; Win64; x64) AppleWebKit/537.36 (KHTML, like Gecko) Chrome/107.0.0.0 Safari/537.36" etag="OLysKCA0qVHoYEWMxSNs" version="20.5.3" type="github">
  <diagram id="r-1uRDfpEe7Fbl37HiYW" name="第 1 页">
    <mxGraphModel dx="252" dy="162" grid="1" gridSize="10" guides="1" tooltips="1" connect="1" arrows="1" fold="1" page="1" pageScale="1" pageWidth="827" pageHeight="1169" math="0" shadow="0">
      <root>
        <mxCell id="0" />
        <mxCell id="1" parent="0" />
        <mxCell id="BJ35M8aDMpwt0qP7Eqh2-1" style="edgeStyle=orthogonalEdgeStyle;rounded=0;orthogonalLoop=1;jettySize=auto;html=1;exitX=0.5;exitY=1;exitDx=0;exitDy=0;entryX=0.5;entryY=0;entryDx=0;entryDy=0;" edge="1" parent="1" source="BJ35M8aDMpwt0qP7Eqh2-2" target="BJ35M8aDMpwt0qP7Eqh2-6">
          <mxGeometry relative="1" as="geometry" />
        </mxCell>
        <mxCell id="BJ35M8aDMpwt0qP7Eqh2-2" value="GAP" style="rounded=0;whiteSpace=wrap;html=1;fillColor=#60a917;fontColor=#ffffff;strokeColor=#2D7600;" vertex="1" parent="1">
          <mxGeometry x="481" y="150" width="50" height="20" as="geometry" />
        </mxCell>
        <mxCell id="BJ35M8aDMpwt0qP7Eqh2-3" style="edgeStyle=orthogonalEdgeStyle;rounded=0;orthogonalLoop=1;jettySize=auto;html=1;exitX=0.5;exitY=1;exitDx=0;exitDy=0;entryX=0.5;entryY=0;entryDx=0;entryDy=0;" edge="1" parent="1" source="BJ35M8aDMpwt0qP7Eqh2-4" target="BJ35M8aDMpwt0qP7Eqh2-10">
          <mxGeometry relative="1" as="geometry" />
        </mxCell>
        <mxCell id="BJ35M8aDMpwt0qP7Eqh2-4" value="FC" style="rounded=0;whiteSpace=wrap;html=1;fillColor=#1ba1e2;fontColor=#ffffff;strokeColor=#006EAF;" vertex="1" parent="1">
          <mxGeometry x="481" y="260" width="50" height="20" as="geometry" />
        </mxCell>
        <mxCell id="BJ35M8aDMpwt0qP7Eqh2-5" style="edgeStyle=orthogonalEdgeStyle;rounded=0;orthogonalLoop=1;jettySize=auto;html=1;exitX=0.5;exitY=1;exitDx=0;exitDy=0;entryX=0.5;entryY=0;entryDx=0;entryDy=0;" edge="1" parent="1" source="BJ35M8aDMpwt0qP7Eqh2-6" target="BJ35M8aDMpwt0qP7Eqh2-8">
          <mxGeometry relative="1" as="geometry" />
        </mxCell>
        <mxCell id="BJ35M8aDMpwt0qP7Eqh2-6" value="FC" style="rounded=0;whiteSpace=wrap;html=1;fillColor=#1ba1e2;fontColor=#ffffff;strokeColor=#006EAF;" vertex="1" parent="1">
          <mxGeometry x="481" y="190" width="50" height="20" as="geometry" />
        </mxCell>
        <mxCell id="BJ35M8aDMpwt0qP7Eqh2-7" style="edgeStyle=orthogonalEdgeStyle;rounded=0;orthogonalLoop=1;jettySize=auto;html=1;exitX=0.5;exitY=1;exitDx=0;exitDy=0;entryX=0.5;entryY=0;entryDx=0;entryDy=0;" edge="1" parent="1" source="BJ35M8aDMpwt0qP7Eqh2-8" target="BJ35M8aDMpwt0qP7Eqh2-4">
          <mxGeometry relative="1" as="geometry" />
        </mxCell>
        <mxCell id="BJ35M8aDMpwt0qP7Eqh2-8" value="ReLU" style="rounded=0;whiteSpace=wrap;html=1;fillColor=#0050ef;fontColor=#ffffff;strokeColor=#001DBC;" vertex="1" parent="1">
          <mxGeometry x="481" y="228" width="50" height="20" as="geometry" />
        </mxCell>
        <mxCell id="BJ35M8aDMpwt0qP7Eqh2-42" style="edgeStyle=orthogonalEdgeStyle;rounded=0;orthogonalLoop=1;jettySize=auto;html=1;exitX=0;exitY=0.5;exitDx=0;exitDy=0;entryX=1;entryY=0.5;entryDx=0;entryDy=0;entryPerimeter=0;" edge="1" parent="1" source="BJ35M8aDMpwt0qP7Eqh2-10" target="BJ35M8aDMpwt0qP7Eqh2-20">
          <mxGeometry relative="1" as="geometry">
            <Array as="points">
              <mxPoint x="460" y="310" />
              <mxPoint x="460" y="330" />
              <mxPoint x="400" y="330" />
              <mxPoint x="400" y="350" />
            </Array>
          </mxGeometry>
        </mxCell>
        <mxCell id="BJ35M8aDMpwt0qP7Eqh2-10" value="Sigmoid" style="rounded=0;whiteSpace=wrap;html=1;fillColor=#a20025;fontColor=#ffffff;strokeColor=#6F0000;" vertex="1" parent="1">
          <mxGeometry x="481" y="300" width="50" height="20" as="geometry" />
        </mxCell>
        <mxCell id="BJ35M8aDMpwt0qP7Eqh2-47" style="edgeStyle=orthogonalEdgeStyle;rounded=0;orthogonalLoop=1;jettySize=auto;html=1;entryX=1;entryY=0.5;entryDx=0;entryDy=0;entryPerimeter=0;" edge="1" parent="1" source="BJ35M8aDMpwt0qP7Eqh2-14" target="BJ35M8aDMpwt0qP7Eqh2-15">
          <mxGeometry relative="1" as="geometry">
            <Array as="points">
              <mxPoint x="541" y="128" />
              <mxPoint x="541" y="350" />
            </Array>
          </mxGeometry>
        </mxCell>
        <mxCell id="BJ35M8aDMpwt0qP7Eqh2-51" style="edgeStyle=orthogonalEdgeStyle;rounded=0;orthogonalLoop=1;jettySize=auto;html=1;exitX=0.5;exitY=1;exitDx=0;exitDy=0;entryX=0.5;entryY=0;entryDx=0;entryDy=0;" edge="1" parent="1" source="BJ35M8aDMpwt0qP7Eqh2-14" target="BJ35M8aDMpwt0qP7Eqh2-2">
          <mxGeometry relative="1" as="geometry" />
        </mxCell>
        <mxCell id="BJ35M8aDMpwt0qP7Eqh2-14" value="Y" style="text;html=1;strokeColor=none;fillColor=none;align=center;verticalAlign=middle;whiteSpace=wrap;rounded=0;" vertex="1" parent="1">
          <mxGeometry x="491" y="118" width="30" height="20" as="geometry" />
        </mxCell>
        <mxCell id="BJ35M8aDMpwt0qP7Eqh2-48" style="edgeStyle=orthogonalEdgeStyle;rounded=0;orthogonalLoop=1;jettySize=auto;html=1;exitX=0.5;exitY=1;exitDx=0;exitDy=0;exitPerimeter=0;entryX=1;entryY=0.5;entryDx=0;entryDy=0;entryPerimeter=0;" edge="1" parent="1" source="BJ35M8aDMpwt0qP7Eqh2-15" target="BJ35M8aDMpwt0qP7Eqh2-43">
          <mxGeometry relative="1" as="geometry" />
        </mxCell>
        <mxCell id="BJ35M8aDMpwt0qP7Eqh2-15" value="" style="verticalLabelPosition=bottom;verticalAlign=top;html=1;shape=mxgraph.flowchart.or;" vertex="1" parent="1">
          <mxGeometry x="496" y="340" width="20" height="20" as="geometry" />
        </mxCell>
        <mxCell id="BJ35M8aDMpwt0qP7Eqh2-16" style="edgeStyle=orthogonalEdgeStyle;rounded=0;orthogonalLoop=1;jettySize=auto;html=1;exitX=0.5;exitY=1;exitDx=0;exitDy=0;entryX=0.5;entryY=0;entryDx=0;entryDy=0;" edge="1" parent="1" source="BJ35M8aDMpwt0qP7Eqh2-17">
          <mxGeometry relative="1" as="geometry">
            <mxPoint x="399" y="199" as="targetPoint" />
          </mxGeometry>
        </mxCell>
        <mxCell id="BJ35M8aDMpwt0qP7Eqh2-17" value="Conv" style="rounded=0;whiteSpace=wrap;html=1;fillColor=#e51400;fontColor=#ffffff;strokeColor=#B20000;" vertex="1" parent="1">
          <mxGeometry x="374" y="159" width="50" height="20" as="geometry" />
        </mxCell>
        <mxCell id="BJ35M8aDMpwt0qP7Eqh2-40" style="edgeStyle=orthogonalEdgeStyle;rounded=0;orthogonalLoop=1;jettySize=auto;html=1;entryX=0.5;entryY=0;entryDx=0;entryDy=0;" edge="1" parent="1" source="BJ35M8aDMpwt0qP7Eqh2-19" target="BJ35M8aDMpwt0qP7Eqh2-17">
          <mxGeometry relative="1" as="geometry" />
        </mxCell>
        <mxCell id="BJ35M8aDMpwt0qP7Eqh2-44" style="edgeStyle=orthogonalEdgeStyle;rounded=0;orthogonalLoop=1;jettySize=auto;html=1;exitX=0;exitY=0.5;exitDx=0;exitDy=0;entryX=0;entryY=0.5;entryDx=0;entryDy=0;entryPerimeter=0;" edge="1" parent="1" source="BJ35M8aDMpwt0qP7Eqh2-19" target="BJ35M8aDMpwt0qP7Eqh2-20">
          <mxGeometry relative="1" as="geometry" />
        </mxCell>
        <mxCell id="BJ35M8aDMpwt0qP7Eqh2-19" value="X" style="text;html=1;strokeColor=none;fillColor=none;align=center;verticalAlign=middle;whiteSpace=wrap;rounded=0;" vertex="1" parent="1">
          <mxGeometry x="389" y="119" width="20" height="19" as="geometry" />
        </mxCell>
        <mxCell id="BJ35M8aDMpwt0qP7Eqh2-49" style="edgeStyle=orthogonalEdgeStyle;rounded=0;orthogonalLoop=1;jettySize=auto;html=1;exitX=0.5;exitY=1;exitDx=0;exitDy=0;exitPerimeter=0;entryX=0;entryY=0.5;entryDx=0;entryDy=0;entryPerimeter=0;" edge="1" parent="1" source="BJ35M8aDMpwt0qP7Eqh2-20" target="BJ35M8aDMpwt0qP7Eqh2-43">
          <mxGeometry relative="1" as="geometry" />
        </mxCell>
        <mxCell id="BJ35M8aDMpwt0qP7Eqh2-20" value="" style="verticalLabelPosition=bottom;verticalAlign=top;html=1;shape=mxgraph.flowchart.or;" vertex="1" parent="1">
          <mxGeometry x="389" y="340" width="20" height="20" as="geometry" />
        </mxCell>
        <mxCell id="BJ35M8aDMpwt0qP7Eqh2-22" value="BN" style="text;html=1;strokeColor=none;fillColor=none;align=center;verticalAlign=middle;whiteSpace=wrap;rounded=0;" vertex="1" parent="1">
          <mxGeometry x="481" y="210" width="19" height="18" as="geometry" />
        </mxCell>
        <mxCell id="BJ35M8aDMpwt0qP7Eqh2-24" value="BN" style="text;html=1;strokeColor=none;fillColor=none;align=center;verticalAlign=middle;whiteSpace=wrap;rounded=0;" vertex="1" parent="1">
          <mxGeometry x="480" y="282" width="20" height="18" as="geometry" />
        </mxCell>
        <mxCell id="BJ35M8aDMpwt0qP7Eqh2-28" style="edgeStyle=orthogonalEdgeStyle;rounded=0;orthogonalLoop=1;jettySize=auto;html=1;exitX=0.5;exitY=1;exitDx=0;exitDy=0;entryX=0.5;entryY=0;entryDx=0;entryDy=0;" edge="1" parent="1" source="BJ35M8aDMpwt0qP7Eqh2-29" target="BJ35M8aDMpwt0qP7Eqh2-31">
          <mxGeometry relative="1" as="geometry" />
        </mxCell>
        <mxCell id="BJ35M8aDMpwt0qP7Eqh2-29" value="ReLU" style="rounded=0;whiteSpace=wrap;html=1;fillColor=#0050ef;fontColor=#ffffff;strokeColor=#001DBC;" vertex="1" parent="1">
          <mxGeometry x="374" y="201" width="50" height="20" as="geometry" />
        </mxCell>
        <mxCell id="BJ35M8aDMpwt0qP7Eqh2-30" style="edgeStyle=orthogonalEdgeStyle;rounded=0;orthogonalLoop=1;jettySize=auto;html=1;exitX=0.5;exitY=1;exitDx=0;exitDy=0;entryX=0.5;entryY=0;entryDx=0;entryDy=0;" edge="1" parent="1" source="BJ35M8aDMpwt0qP7Eqh2-31" target="BJ35M8aDMpwt0qP7Eqh2-36">
          <mxGeometry relative="1" as="geometry" />
        </mxCell>
        <mxCell id="BJ35M8aDMpwt0qP7Eqh2-31" value="Conv" style="rounded=0;whiteSpace=wrap;html=1;fillColor=#e51400;fontColor=#ffffff;strokeColor=#B20000;" vertex="1" parent="1">
          <mxGeometry x="374" y="240" width="50" height="20" as="geometry" />
        </mxCell>
        <mxCell id="BJ35M8aDMpwt0qP7Eqh2-32" value="BN" style="text;html=1;strokeColor=none;fillColor=none;align=center;verticalAlign=middle;whiteSpace=wrap;rounded=0;" vertex="1" parent="1">
          <mxGeometry x="374" y="181" width="20" height="18" as="geometry" />
        </mxCell>
        <mxCell id="BJ35M8aDMpwt0qP7Eqh2-34" value="BN" style="text;html=1;strokeColor=none;fillColor=none;align=center;verticalAlign=middle;whiteSpace=wrap;rounded=0;" vertex="1" parent="1">
          <mxGeometry x="374" y="263" width="20" height="18" as="geometry" />
        </mxCell>
        <mxCell id="BJ35M8aDMpwt0qP7Eqh2-50" style="edgeStyle=orthogonalEdgeStyle;rounded=0;orthogonalLoop=1;jettySize=auto;html=1;exitX=1;exitY=0.5;exitDx=0;exitDy=0;entryX=0;entryY=0.5;entryDx=0;entryDy=0;entryPerimeter=0;" edge="1" parent="1" source="BJ35M8aDMpwt0qP7Eqh2-36" target="BJ35M8aDMpwt0qP7Eqh2-15">
          <mxGeometry relative="1" as="geometry">
            <Array as="points">
              <mxPoint x="440" y="310" />
              <mxPoint x="440" y="350" />
            </Array>
          </mxGeometry>
        </mxCell>
        <mxCell id="BJ35M8aDMpwt0qP7Eqh2-36" value="Sigmoid" style="rounded=0;whiteSpace=wrap;html=1;fillColor=#a20025;fontColor=#ffffff;strokeColor=#6F0000;" vertex="1" parent="1">
          <mxGeometry x="374" y="300" width="50" height="20" as="geometry" />
        </mxCell>
        <mxCell id="BJ35M8aDMpwt0qP7Eqh2-43" value="" style="verticalLabelPosition=bottom;verticalAlign=top;html=1;shape=mxgraph.flowchart.summing_function;" vertex="1" parent="1">
          <mxGeometry x="440" y="370" width="20" height="20" as="geometry" />
        </mxCell>
        <mxCell id="BJ35M8aDMpwt0qP7Eqh2-52" value="Z" style="text;html=1;strokeColor=none;fillColor=none;align=center;verticalAlign=middle;whiteSpace=wrap;rounded=0;" vertex="1" parent="1">
          <mxGeometry x="440" y="390" width="20" height="19" as="geometry" />
        </mxCell>
      </root>
    </mxGraphModel>
  </diagram>
</mxfile>
